<?xml version="1.0" standalone="no"?>
<!DOCTYPE svg PUBLIC "-//W3C//DTD SVG 20010904//EN"
 "http://www.w3.org/TR/2001/REC-SVG-20010904/DTD/svg10.dtd">
<svg version="1.0" xmlns="http://www.w3.org/2000/svg"
 width="421.000000pt" height="421.000000pt" viewBox="0 0 421.000000 421.000000"
 preserveAspectRatio="xMidYMid meet">
<metadata>
Created by potrace 1.14, written by Peter Selinger 2001-2017
</metadata>
<g transform="translate(0.000000,421.000000) scale(0.100000,-0.100000)"
fill="#000000" stroke="none">
<path d="M2312 3862 c-29 -27 -52 -46 -52 -43 0 2 -11 -6 -25 -19 -14 -13 -25
-20 -25 -15 0 4 -8 -1 -17 -12 -10 -11 -23 -18 -30 -16 -6 2 -14 -1 -18 -6
-10 -17 -55 -13 -55 4 0 8 -6 15 -12 15 -8 0 -9 3 -3 8 13 10 17 32 6 32 -6 0
-8 9 -6 19 2 11 -3 22 -11 25 -8 3 -14 1 -14 -5 0 -6 -5 -7 -10 -4 -6 3 -13
-1 -16 -9 -3 -9 -10 -13 -15 -10 -5 3 -9 0 -9 -5 0 -6 -3 -10 -7 -9 -11 2 -73
-36 -73 -45 0 -5 -4 -6 -8 -3 -5 3 -30 -6 -55 -20 -26 -13 -47 -21 -47 -17 0
5 -4 2 -8 -5 -5 -7 -19 -15 -32 -17 -13 -2 -27 -10 -30 -16 -4 -6 -9 -10 -11
-8 -8 4 -54 -14 -67 -27 -7 -8 -18 -12 -23 -9 -5 4 -9 1 -9 -5 0 -6 -4 -9 -9
-6 -5 3 -12 -1 -15 -9 -3 -8 -9 -14 -13 -13 -12 4 -73 -35 -68 -43 3 -4 -7
-10 -20 -13 -14 -4 -23 -11 -20 -16 3 -6 0 -10 -7 -10 -7 0 -19 -9 -26 -20 -7
-11 -19 -20 -28 -20 -11 0 -14 -5 -10 -17 4 -10 4 -15 1 -11 -9 9 -45 -23 -45
-40 0 -7 -7 -15 -15 -18 -8 -4 -15 -12 -15 -20 0 -8 -5 -14 -11 -14 -5 0 -8
-4 -5 -9 3 -5 -1 -12 -9 -15 -9 -3 -18 1 -21 9 -4 8 -10 12 -15 9 -5 -3 -9 -2
-8 3 1 4 -1 25 -6 47 -7 34 -19 36 -24 4 -1 -4 -13 -19 -26 -34 -14 -15 -23
-30 -20 -34 3 -4 -2 -13 -11 -20 -8 -7 -13 -19 -10 -27 3 -8 1 -11 -4 -8 -9 5
-15 -16 -11 -38 1 -5 -2 -6 -7 -4 -4 3 -15 -8 -25 -24 -10 -18 -12 -28 -4 -24
6 4 3 -1 -7 -9 -11 -9 -16 -16 -12 -16 5 0 3 -7 -4 -15 -7 -8 -9 -15 -6 -15 4
0 0 -8 -10 -17 -11 -11 -13 -18 -5 -21 8 -3 8 -9 0 -23 -5 -11 -7 -24 -4 -29
3 -5 1 -12 -5 -15 -8 -5 -8 -11 -1 -19 6 -7 8 -16 5 -19 -8 -8 -11 -177 -4
-177 3 0 5 -19 4 -42 0 -24 1 -47 4 -52 4 -8 7 -35 11 -129 0 -16 4 -26 9 -24
4 3 7 -7 8 -21 3 -75 13 -127 24 -124 7 1 8 -2 4 -10 -12 -18 -14 -37 -4 -43
4 -2 6 -16 5 -30 -2 -14 0 -25 4 -25 4 0 7 -8 8 -17 1 -10 2 -35 4 -55 1 -21
7 -38 13 -38 6 0 3 -7 -6 -14 -10 -7 -15 -16 -11 -20 4 -4 -7 -6 -24 -4 -31 2
-67 -18 -58 -32 3 -5 0 -10 -6 -12 -5 -2 -11 -22 -12 -45 -1 -22 -5 -39 -9
-36 -5 2 -8 -1 -8 -6 0 -6 4 -11 8 -11 7 0 11 -36 12 -97 0 -13 4 -23 8 -23 8
0 12 -28 12 -78 0 -16 4 -21 13 -16 8 5 7 2 -2 -9 -11 -13 -11 -17 -1 -17 8 0
10 -3 7 -7 -4 -3 -2 -12 4 -20 8 -9 8 -13 1 -13 -6 0 -9 -7 -6 -15 4 -8 1 -15
-6 -15 -6 0 -8 -5 -4 -12 6 -10 5 -10 -8 -1 -8 7 -17 10 -21 7 -3 -3 -26 -6
-51 -6 -25 0 -48 -4 -52 -9 -3 -5 -9 -7 -14 -4 -4 3 -12 -3 -16 -13 -12 -25
-11 -146 1 -154 7 -5 7 -8 0 -8 -9 0 -12 -47 -5 -57 1 -2 2 -18 3 -35 0 -18 5
-36 11 -40 8 -5 7 -8 -1 -8 -15 0 -13 -110 2 -110 7 0 7 -3 0 -8 -11 -8 -16
-62 -6 -62 3 0 5 -26 5 -57 -1 -32 1 -62 3 -66 3 -5 6 -41 7 -80 1 -40 6 -78
10 -86 6 -10 5 -12 -2 -7 -14 8 -12 -20 2 -43 6 -9 5 -12 -2 -7 -6 3 -14 -4
-18 -16 -3 -12 -20 -33 -35 -47 -16 -14 -29 -31 -29 -39 0 -7 -4 -11 -9 -7 -5
3 -12 -4 -16 -15 -3 -11 -11 -20 -16 -20 -6 0 -7 -4 -4 -10 3 -5 2 -10 -3 -10
-9 0 -35 -53 -36 -75 -1 -5 -5 -13 -9 -16 -5 -3 -10 -15 -12 -25 -2 -10 -4
-20 -5 -21 -2 -2 -3 -6 -5 -10 -1 -5 -4 -15 -8 -23 -9 -24 -20 -74 -19 -82 1
-5 -2 -8 -7 -8 -6 0 -10 -8 -10 -17 -1 -39 -5 -53 -13 -53 -5 0 -7 -4 -4 -9 4
-5 2 -20 -3 -33 -5 -14 -6 -29 -3 -34 9 -13 55 -12 64 1 5 6 8 6 8 -1 0 -15
102 -14 112 1 5 6 8 6 8 -2 0 -6 13 -11 30 -11 18 1 27 5 23 12 -4 6 1 4 12
-4 15 -13 81 -15 454 -15 279 0 439 -4 443 -10 4 -5 8 -1 8 10 0 13 3 16 8 8
5 -8 31 -11 75 -9 37 1 67 -1 67 -6 0 -5 5 -6 12 -2 17 11 109 11 132 1 14 -7
17 -6 10 5 -6 11 -5 11 9 -1 9 -7 17 -9 17 -5 0 11 172 10 189 0 6 -4 11 -3
11 3 0 5 9 9 20 8 11 -1 20 -5 20 -9 0 -4 10 -4 23 0 27 9 230 8 245 -2 5 -3
12 0 15 6 3 10 7 10 19 1 8 -7 18 -10 21 -6 11 10 196 9 190 -1 -4 -5 -1 -6 4
-3 20 13 83 16 83 5 0 -6 5 -7 13 -1 6 5 30 8 52 7 22 -1 46 4 54 10 11 8 13
8 7 -2 -6 -9 4 -11 41 -6 26 3 53 9 59 15 6 5 14 6 18 2 12 -12 36 -12 36 0 0
8 3 8 8 2 9 -13 52 -15 52 -3 0 5 8 4 18 -1 13 -7 23 -6 30 1 8 8 12 8 12 2 0
-9 32 -11 50 -4 3 1 10 1 15 0 54 -12 69 -1 59 42 -9 38 -12 53 -14 56 -3 2
-2 1 -15 57 -10 46 -12 53 -15 60 -1 3 -3 8 -4 13 -8 34 -19 51 -29 45 -8 -5
-8 -2 0 9 7 8 9 18 5 22 -4 4 -7 11 -8 14 -2 19 -17 41 -24 37 -5 -3 -7 3 -5
12 1 10 -6 30 -16 45 -11 14 -19 29 -19 33 0 4 -24 30 -52 59 -64 64 -79 88
-68 106 5 8 4 22 -1 31 -5 11 -5 20 0 23 5 4 8 14 7 24 -2 9 0 29 5 45 5 16 4
27 -2 27 -6 0 -7 6 -2 12 12 21 13 41 0 57 -7 9 -8 12 -1 8 8 -4 12 15 14 61
1 37 3 94 5 128 1 33 5 66 9 72 4 7 2 12 -4 12 -6 0 -8 5 -4 12 10 16 12 108
2 114 -5 3 -5 11 -1 17 12 20 12 67 0 67 -6 0 -2 7 9 15 12 9 14 14 5 15 -8 0
-11 6 -7 16 11 30 -35 61 -95 63 -30 2 -60 3 -67 3 -10 1 -12 13 -7 47 3 25 6
56 7 69 0 12 4 22 10 22 5 0 7 4 4 8 -2 4 -1 14 4 22 5 9 4 20 -3 29 -10 12
-9 13 2 6 11 -6 13 -1 9 24 -2 17 -1 31 3 31 4 0 6 17 4 37 -2 21 1 44 7 50 7
9 7 13 -1 13 -8 0 -10 11 -7 30 2 17 1 30 -3 30 -4 0 -14 12 -21 28 -7 15 -14
22 -17 16 -2 -7 -13 -10 -23 -7 -11 3 -20 1 -20 -4 0 -5 -9 -9 -19 -9 -17 0
-19 6 -15 46 6 67 7 70 15 70 3 0 9 9 12 20 3 13 1 18 -5 13 -7 -4 -8 -1 -3 7
9 14 12 36 20 119 3 29 8 57 11 62 3 5 -1 9 -8 9 -10 0 -10 2 1 9 8 5 12 18 8
30 -3 12 -2 21 2 21 4 0 7 10 6 23 -1 12 2 32 6 45 5 12 5 22 0 22 -9 0 -8 30
1 45 11 18 6 249 -6 264 -6 8 -10 16 -8 18 6 8 1 24 -6 19 -5 -3 -9 1 -9 9 0
8 4 12 8 9 5 -3 2 11 -6 31 -9 19 -12 35 -8 35 5 0 4 4 -2 8 -15 11 -35 50
-35 67 0 9 -4 13 -10 10 -6 -3 -7 1 -4 9 3 9 1 16 -6 16 -6 0 -8 5 -5 10 3 6
1 10 -5 10 -7 0 -10 7 -6 15 3 8 -1 18 -8 22 -6 5 -18 23 -25 40 -7 18 -18 30
-24 26 -5 -3 -7 -2 -4 3 8 13 -23 75 -34 68 -5 -3 -6 1 -3 9 3 8 -2 17 -10 20
-9 4 -16 13 -16 22 0 8 -4 15 -10 15 -5 0 -10 -23 -10 -51 0 -31 -4 -48 -10
-44 -5 3 -10 -1 -10 -9 0 -9 -5 -16 -11 -16 -5 0 -7 5 -4 10 3 6 -1 13 -9 16
-9 3 -16 11 -16 16 0 6 -8 18 -18 27 -10 9 -29 36 -43 61 -13 25 -27 47 -31
48 -5 2 -8 12 -8 22 0 10 -3 20 -7 22 -5 2 -19 24 -32 50 -13 26 -27 46 -30
43 -4 -2 -8 6 -8 17 -3 39 -45 43 -49 5 -2 -25 -17 -57 -26 -57 -5 0 -6 5 -2
12 5 7 2 9 -7 6 -9 -4 -15 1 -17 13 -4 43 -6 49 -14 49 -5 0 -6 5 -3 10 3 6 2
10 -3 10 -6 0 -8 9 -5 20 3 12 0 20 -7 20 -6 0 -10 6 -7 13 2 6 -1 23 -9 37
-7 14 -15 33 -18 42 -7 22 -32 14 -39 -13 -4 -13 -10 -17 -23 -12 -13 5 -15 3
-9 -7 5 -9 4 -11 -4 -6 -6 4 -9 12 -6 17 4 5 2 9 -2 9 -5 0 -9 9 -10 20 -1 13
2 18 10 13 7 -4 5 2 -3 13 -8 10 -15 20 -15 21 -1 2 -25 -19 -53 -45z"/>
</g>
</svg>
